<?xml version="1.0" standalone="no"?>
<!DOCTYPE svg PUBLIC "-//W3C//DTD SVG 20010904//EN"
 "http://www.w3.org/TR/2001/REC-SVG-20010904/DTD/svg10.dtd">
<svg version="1.0" xmlns="http://www.w3.org/2000/svg"
 width="1237.000000pt" height="384.000000pt" viewBox="0 0 1237.000000 384.000000"
 preserveAspectRatio="xMidYMid meet">
<g transform="translate(0.000000,384.000000) scale(0.100000,-0.100000)"
fill="#1a3408" stroke="none">
<path d="M400 1910 l0 -1550 591 2 c590 3 590 3 590 276 0 273 0 273 -293 275
l-293 2 -3 1273 -2 1272 -295 0 -295 0 0 -1550z"/>
<path d="M2166 3448 c-3 -7 -95 -699 -206 -1537 -110 -838 -202 -1529 -203
-1535 -1 -8 74 -11 273 -11 275 0 275 0 303 230 15 127 29 236 32 242 6 17
260 18 271 2 4 -8 42 -407 44 -471 0 -5 144 -8 321 -8 320 0 320 0 314 53 -4
28 -98 725 -209 1547 l-202 1495 -367 3 c-289 2 -368 0 -371 -10z m403 -1553
c17 -231 31 -437 31 -457 0 -38 0 -38 -90 -38 -90 0 -90 0 -90 29 0 27 83 763
96 859 4 24 10 40 14 35 4 -4 21 -197 39 -428z"/>
<path d="M4190 3455 c0 -3 0 -699 0 -1547 l0 -1543 606 0 c605 0 605 0 605
273 0 273 0 273 -293 275 l-293 2 -3 1273 -2 1272 -310 0 c-171 0 -310 -2
-310 -5z"/>
<path d="M5700 3455 c0 -3 0 -699 0 -1547 l0 -1543 607 0 c608 0 608 0 608
273 0 273 0 273 -295 275 l-295 2 -3 1273 -2 1272 -310 0 c-171 0 -310 -2
-310 -5z"/>
<path d="M7210 3455 c0 -3 0 -699 0 -1547 l0 -1543 610 -3 c610 -2 610 -2 608
274 -3 275 -3 275 -298 277 -295 2 -295 2 -298 390 -2 387 -2 387 193 387 195
0 195 0 195 278 0 277 0 277 -192 277 -193 0 -193 0 -196 348 -2 347 -2 347
298 347 300 0 300 0 300 260 0 260 0 260 -610 260 -335 0 -610 -2 -610 -5z"/>
<path d="M8740 1910 l0 -1550 310 0 310 0 0 625 c0 625 0 625 58 625 65 0 96
-13 126 -53 20 -28 21 -42 27 -485 7 -481 6 -476 59 -671 11 -41 11 -41 312
-41 300 0 300 0 295 23 -68 310 -76 404 -77 867 0 332 0 335 -24 386 -32 68
-82 123 -161 174 -36 23 -65 46 -65 50 0 4 22 22 50 40 71 46 152 137 173 196
15 44 17 93 17 459 0 445 -3 472 -57 585 -36 75 -140 177 -228 222 -167 86
-258 98 -767 98 l-358 0 0 -1550z m741 990 c68 -19 70 -34 67 -400 -3 -320 -3
-320 -30 -346 -23 -23 -35 -27 -90 -28 -63 -1 -63 -1 -66 379 -1 209 0 386 3
392 5 16 66 17 116 3z"/>
<path d="M10797 3453 c-4 -3 -7 -18 -7 -33 0 -14 -90 -705 -200 -1535 -110
-829 -200 -1512 -200 -1516 0 -5 123 -9 274 -9 273 0 273 0 301 233 15 127 32
238 37 245 7 8 47 12 134 12 120 0 125 -1 134 -22 7 -18 41 -400 40 -456 0
-10 68 -12 323 -10 237 2 321 6 320 15 -1 6 -96 702 -210 1547 l-207 1536
-367 0 c-201 0 -369 -3 -372 -7z m373 -1150 c1 -16 16 -221 34 -458 19 -236
32 -433 29 -437 -2 -5 -44 -8 -94 -8 -80 0 -89 2 -89 19 0 10 23 214 50 454
28 240 50 441 50 446 0 6 5 11 10 11 6 0 10 -12 10 -27z"/>
</g>
</svg>
